<svg width="1em" height="1em" viewBox="0 0 20 20" xmlns="http://www.w3.org/2000/svg" class="larkui-icon larkui-icon-book-type-reports icon-svg index-module_size_wVASz" data-name="BookTypeReports" style="width: 38px; min-width: 38px; height: 38px;"><g fill="none" fill-rule="evenodd"><g transform="translate(1.483 3.01)"><rect fill="#F6D4C6" x="0.517" y="0.517" width="16" height="14.973" rx="2"></rect><path d="M2 0h13.023a2 2 0 0 1 2 2v2.441H0V2a2 2 0 0 1 2-2Z" fill="#DE815A"></path><path stroke="#9D553E" stroke-linecap="square" d="M.591 4.441h15.67"></path></g><path stroke="#9D553E" stroke-linecap="round" d="M5.959 1.235v1.68M13.959 1.235v1.68"></path><rect stroke="#9D553E" stroke-linecap="round" x="2" y="3.093" width="16" height="15.407" rx="1.5"></rect><path d="M7.054 10.28a.5.5 0 0 1 .763.339l.007.082v5a.5.5 0 0 1-.992.09l-.008-.09-.001-4.084-.553.355a.5.5 0 0 1-.635-.079l-.056-.071a.5.5 0 0 1 .08-.636l.07-.055 1.325-.85ZM14 10.2a.5.5 0 0 1 .492.588l-.022.082-1.794 4.99a.5.5 0 0 1-.964-.251l.023-.088 1.553-4.321h-2.717a.5.5 0 0 1-.492-.41l-.008-.09a.5.5 0 0 1 .41-.491l.09-.008H14Z" fill="#9D553E" fill-rule="nonzero"></path></g></svg>